<svg width="50" height="52" viewBox="0 0 50 52" fill="none" xmlns="http://www.w3.org/2000/svg">
<path opacity="0.5" d="M2 17C2 15.8954 2.89543 15 4 15H7V35H4C2.89543 35 2 34.1046 2 33V17Z" fill="#2B2C35" stroke="#7E808C" stroke-width="2"/>
<path opacity="0.5" d="M43 16H46C47.1046 16 48 16.8954 48 18V34C48 35.1046 47.1046 36 46 36H43V16Z" fill="#2B2C35" stroke="#7E808C" stroke-width="2"/>
<path d="M7 14C7 11.7909 8.79086 10 11 10H13V42H11C8.79086 42 7 40.2091 7 38V14Z" fill="#2B2C35" stroke="#7E808C" stroke-width="2"/>
<path d="M37 10H39C41.2091 10 43 11.7909 43 14V38C43 40.2091 41.2091 42 39 42H37V10Z" fill="#2B2C35" stroke="#7E808C" stroke-width="2"/>
<g filter="url(#filter0_d_0_66)">
<rect x="12" y="5" width="26" height="42" rx="5" fill="#5E2745"/>
<rect x="13" y="6" width="24" height="40" rx="4" stroke="url(#paint0_linear_0_66)" stroke-width="2"/>
</g>
<defs>
<filter id="filter0_d_0_66" x="7" y="0" width="36" height="52" filterUnits="userSpaceOnUse" color-interpolation-filters="sRGB">
<feFlood flood-opacity="0" result="BackgroundImageFix"/>
<feColorMatrix in="SourceAlpha" type="matrix" values="0 0 0 0 0 0 0 0 0 0 0 0 0 0 0 0 0 0 127 0" result="hardAlpha"/>
<feOffset/>
<feGaussianBlur stdDeviation="2.5"/>
<feColorMatrix type="matrix" values="0 0 0 0 0.801432 0 0 0 0 0.230351 0 0 0 0 0.477828 0 0 0 0.7 0"/>
<feBlend mode="normal" in2="BackgroundImageFix" result="effect1_dropShadow_0_66"/>
<feBlend mode="normal" in="SourceGraphic" in2="effect1_dropShadow_0_66" result="shape"/>
</filter>
<linearGradient id="paint0_linear_0_66" x1="12" y1="5" x2="12" y2="47" gradientUnits="userSpaceOnUse">
<stop stop-color="#EF5F82"/>
<stop offset="1" stop-color="#D83293"/>
</linearGradient>
</defs>
</svg>
