<svg width="16" height="16" viewBox="0 0 16 16" fill="none" xmlns="http://www.w3.org/2000/svg">
    <path d="M1 4.5h14a.5.5 0 0 1 .5.5v10a.5.5 0 0 1-.5.5H1a.5.5 0 0 1-.5-.5V5a.5.5 0 0 1 .5-.5zM9 1.5h4a.5.5 0 0 1 .5.5v2a.5.5 0 0 1-.5.5H9a.5.5 0 0 1-.5-.5V2a.5.5 0 0 1 .5-.5zM3 2.5h1a.5.5 0 0 1 .5.5v1a.5.5 0 0 1-.5.5H3a.5.5 0 0 1-.5-.5V3a.5.5 0 0 1 .5-.5z" stroke="#999" stroke-linecap="round"/>
    <path d="M10.5 10a2.5 2.5 0 1 1-5 0 2.5 2.5 0 0 1 5 0z" stroke="#999" stroke-linecap="round"/>
</svg>
