<svg width="36" height="36" viewBox="0 0 36 36" fill="none" xmlns="http://www.w3.org/2000/svg">
<path fill-rule="evenodd" clip-rule="evenodd" d="M29.0015 7.9529C27.0021 7.03845 24.8787 6.37198 22.6623 6C22.3833 6.48048 22.0733 7.13144 21.8563 7.64292C19.4989 7.30193 17.1585 7.30193 14.8336 7.64292C14.6166 7.13144 14.2911 6.48048 14.0276 6C11.7958 6.37198 9.67235 7.03845 7.6869 7.9529C3.6726 13.8736 2.58765 19.6548 3.13012 25.3585C5.79599 27.2959 8.36889 28.4739 10.8968 29.2489C11.5168 28.4119 12.0748 27.5129 12.5553 26.5675C11.6408 26.2265 10.7728 25.808 9.93587 25.312C10.1529 25.1571 10.3699 24.9866 10.5714 24.8161C15.6241 27.1255 21.0969 27.1255 26.0876 24.8161C26.1543 24.8685 26.2195 24.9209 26.2842 24.9728L26.2842 24.9729C26.43 25.09 26.5728 25.2047 26.7231 25.312C25.8861 25.808 25.0182 26.2265 24.1037 26.5675C24.5842 27.5129 25.1422 28.4119 25.7621 29.2489C28.2885 28.4739 30.8769 27.2959 33.5288 25.3585C34.1952 18.7559 32.4733 13.0212 29.0015 7.9529ZM13.2527 21.8402C11.7338 21.8402 10.4938 20.4608 10.4938 18.7714C10.4938 17.082 11.7028 15.7025 13.2527 15.7025C14.7871 15.7025 16.0425 17.082 16.0115 18.7714C16.0115 20.4608 14.7871 21.8402 13.2527 21.8402ZM20.6768 18.7714C20.6768 20.4608 21.9183 21.8402 23.4373 21.8402C24.9872 21.8402 26.1961 20.4608 26.1961 18.7714C26.2271 17.082 24.9717 15.7025 23.4373 15.7025C21.8873 15.7025 20.6768 17.082 20.6768 18.7714Z" fill="white"/>
</svg>
