<svg width="36" height="36" viewBox="0 0 36 36" fill="none" xmlns="http://www.w3.org/2000/svg">
<path fill-rule="evenodd" clip-rule="evenodd" d="M23.069 5.09481C20.8414 4.9684 14.16 4.9684 11.9312 5.09481C9.77479 5.1979 7.85896 5.69128 6.27573 7.2696C4.69128 8.84791 4.20404 10.7637 4.09481 12.925C3.9684 15.1538 3.9684 21.834 4.09481 24.0628C4.1979 26.2253 4.69251 28.1412 6.27573 29.7183C7.86019 31.2978 9.76865 31.7912 11.9312 31.8992C14.16 32.0256 20.8402 32.0256 23.069 31.8992C25.2315 31.7973 27.1473 31.3027 28.7244 29.7183C30.3039 28.1412 30.7973 26.2253 30.9053 24.0628C31.0317 21.834 31.0317 15.16 30.9053 12.9312C30.8035 10.7686 30.3089 8.85405 28.7244 7.27573C27.1473 5.69742 25.2315 5.20404 23.069 5.09481ZM9.54651 7.97407C11.0701 7.37011 14.386 7.40391 16.5386 7.42585L16.5387 7.42585C16.8969 7.42951 17.223 7.43283 17.5031 7.43283C17.7776 7.43283 18.0961 7.42976 18.4459 7.42639C20.5991 7.40565 23.9364 7.3735 25.461 7.9753C26.6342 8.43837 27.563 9.36713 28.0261 10.5404C28.6305 12.0652 28.5971 15.3853 28.5754 17.5378C28.5718 17.894 28.5685 18.2182 28.5685 18.497C28.5685 18.7757 28.5718 19.1 28.5754 19.4563C28.5971 21.6102 28.6305 24.9352 28.0261 26.4549C27.5627 27.6283 26.6335 28.5571 25.4598 29.0199C23.936 29.6244 20.6151 29.5909 18.4624 29.5693C18.1062 29.5657 17.7819 29.5624 17.5031 29.5624C17.2287 29.5624 16.9101 29.5655 16.5603 29.5688H16.5603C14.4071 29.5896 11.0698 29.6217 9.54528 29.0199C8.37179 28.5566 7.443 27.6273 6.98021 26.4536C6.37575 24.9299 6.4092 21.6089 6.43088 19.4562V19.4562V19.4562V19.4562C6.43447 19.1 6.43774 18.7758 6.43774 18.497C6.43774 18.224 6.43473 17.9073 6.43142 17.5596C6.41093 15.4067 6.37914 12.0651 6.98144 10.5404C7.44422 9.36666 8.37302 8.43742 9.54651 7.97407ZM12.6066 13.5996C13.9054 12.301 15.6677 11.573 17.5044 11.5762C19.3408 11.5736 21.1027 12.3021 22.401 13.6009C23.6993 14.8997 24.4272 16.6618 24.4252 18.497C24.4284 20.3338 23.7002 22.0964 22.4013 23.3952C21.1025 24.694 19.34 25.4223 17.5031 25.419C15.6665 25.4219 13.9043 24.6936 12.6057 23.3948C11.3072 22.096 10.5791 20.3336 10.5823 18.497C10.5794 16.6604 11.3078 14.8982 12.6066 13.5996ZM17.5031 13.9977C19.9869 14.0004 21.9997 16.0132 22.0024 18.497C21.9977 20.9799 19.9861 22.9916 17.5031 22.9963C15.0202 22.9916 13.0086 20.9799 13.0038 18.497C13.0065 16.0132 15.0194 14.0004 17.5031 13.9977ZM23.0935 11.2939C23.0935 10.4026 23.8161 9.68003 24.7074 9.68003C25.5463 9.68003 26.2357 10.3201 26.3139 11.1385L26.3213 11.2927C26.3213 12.1911 25.5985 12.9078 24.7074 12.9078C23.8161 12.9078 23.0935 12.1853 23.0935 11.2939Z" fill="white"/>
</svg>
