<svg width="36" height="36" viewBox="0 0 36 36" fill="none" xmlns="http://www.w3.org/2000/svg">
<path fill-rule="evenodd" clip-rule="evenodd" d="M5.07548 15.4959L29.618 5.28117C29.618 5.28117 31.6354 4.34123 31.6354 5.89848L27.2659 29.2772C27.2659 29.2772 26.6538 30.8987 24.9718 30.1205L18.7536 25.0625L14.7637 28.9207C14.7637 28.9207 14.4532 29.1715 14.1115 29.014C14.1115 29.014 13.8172 28.985 13.4504 27.7545C13.0835 26.5206 11.2195 20.036 11.2195 20.036L5.04404 17.8314C5.04404 17.8314 4.09719 17.4749 4.00496 16.6956C3.91514 15.9176 5.07548 15.4959 5.07548 15.4959ZM18.6206 21.9874L25.2731 27.397L28.8847 8.08097L8.42868 16.5954L13.7903 18.5091L25.8776 11.333L17.0101 19.7372L16.5562 23.983L18.6206 21.9874Z" fill="white"/>
</svg>
