<svg width="36" height="36" viewBox="0 0 36 36" fill="none" xmlns="http://www.w3.org/2000/svg">
<path fill-rule="evenodd" clip-rule="evenodd" d="M23.3963 6C20.0499 6 17.3577 8.71075 17.3577 12.0385C17.3577 12.5059 17.4139 12.9732 17.5073 13.4219C12.4971 13.1601 8.02893 10.7672 5.0564 7.10298C4.53291 8.00035 4.23384 9.02858 4.23384 10.1503C4.23384 12.2441 5.29942 14.0949 6.92589 15.1793C5.93513 15.1419 5.00029 14.8615 4.19644 14.4128V14.4876C4.19644 17.4227 6.27165 19.853 9.03852 20.4139C8.53378 20.5447 7.99158 20.6195 7.44944 20.6195C7.05681 20.6195 6.68293 20.5821 6.309 20.5261C7.07551 22.9191 9.30023 24.6577 11.9549 24.7138C9.87978 26.3403 7.28112 27.2937 4.45821 27.2937C3.95342 27.2937 3.48609 27.275 3 27.2189C5.67341 28.9388 8.85155 29.9297 12.2728 29.9297C23.3777 29.9297 29.4535 20.7317 29.4535 12.7489C29.4535 12.4872 29.4535 12.2254 29.4348 11.9637C30.6126 11.1037 31.6409 10.0381 32.4634 8.84167C31.3791 9.309 30.2013 9.64559 28.9861 9.77639C30.2386 9.02864 31.1921 7.85085 31.6408 6.44868C30.4817 7.14039 29.173 7.64518 27.8083 7.9069C26.7053 6.72911 25.1349 6 23.3963 6Z" fill="white"/>
</svg>
